<mxfile host="app.diagrams.net" modified="2020-10-11T12:51:56.903Z" agent="5.0 (Windows NT 10.0; Win64; x64) AppleWebKit/537.36 (KHTML, like Gecko) Chrome/85.0.4183.121 Safari/537.36" etag="Pr1daU5YvgiBvk3bLyhE" version="13.7.6" type="github">
  <diagram id="bO0EFUuGzmvU0SF8ek49" name="Page-1">
    <mxGraphModel dx="1038" dy="548" grid="1" gridSize="10" guides="1" tooltips="1" connect="1" arrows="1" fold="1" page="1" pageScale="1" pageWidth="827" pageHeight="1169" math="0" shadow="0">
      <root>
        <mxCell id="0" />
        <mxCell id="1" parent="0" />
        <mxCell id="V0SltNnf2rR5sdcxYznG-3" style="edgeStyle=orthogonalEdgeStyle;rounded=0;orthogonalLoop=1;jettySize=auto;html=1;exitX=0.5;exitY=1;exitDx=0;exitDy=0;entryX=0.5;entryY=0;entryDx=0;entryDy=0;fontSize=14;" edge="1" parent="1" source="V0SltNnf2rR5sdcxYznG-1" target="V0SltNnf2rR5sdcxYznG-2">
          <mxGeometry relative="1" as="geometry" />
        </mxCell>
        <mxCell id="V0SltNnf2rR5sdcxYznG-1" value="创建Command" style="rounded=0;whiteSpace=wrap;html=1;fontSize=14;flipV=0;" vertex="1" parent="1">
          <mxGeometry x="329.99" y="210" width="120" height="40" as="geometry" />
        </mxCell>
        <mxCell id="V0SltNnf2rR5sdcxYznG-5" style="edgeStyle=orthogonalEdgeStyle;rounded=0;orthogonalLoop=1;jettySize=auto;html=1;exitX=0.5;exitY=1;exitDx=0;exitDy=0;fontSize=14;" edge="1" parent="1" source="V0SltNnf2rR5sdcxYznG-2" target="V0SltNnf2rR5sdcxYznG-4">
          <mxGeometry relative="1" as="geometry" />
        </mxCell>
        <mxCell id="V0SltNnf2rR5sdcxYznG-2" value="开始执行Command" style="rounded=0;whiteSpace=wrap;html=1;fontSize=14;flipV=0;" vertex="1" parent="1">
          <mxGeometry x="324.99" y="290" width="130" height="40" as="geometry" />
        </mxCell>
        <mxCell id="V0SltNnf2rR5sdcxYznG-10" style="edgeStyle=orthogonalEdgeStyle;rounded=0;orthogonalLoop=1;jettySize=auto;html=1;exitX=0.5;exitY=1;exitDx=0;exitDy=0;entryX=0.5;entryY=0;entryDx=0;entryDy=0;fontSize=14;fontColor=#FF0000;" edge="1" parent="1" source="V0SltNnf2rR5sdcxYznG-4" target="V0SltNnf2rR5sdcxYznG-9">
          <mxGeometry relative="1" as="geometry" />
        </mxCell>
        <mxCell id="V0SltNnf2rR5sdcxYznG-35" style="edgeStyle=orthogonalEdgeStyle;rounded=0;orthogonalLoop=1;jettySize=auto;html=1;exitX=1;exitY=0.5;exitDx=0;exitDy=0;entryX=1;entryY=0.5;entryDx=0;entryDy=0;fontSize=14;fontColor=#FF0000;" edge="1" parent="1" source="V0SltNnf2rR5sdcxYznG-4" target="V0SltNnf2rR5sdcxYznG-19">
          <mxGeometry relative="1" as="geometry">
            <Array as="points">
              <mxPoint x="730" y="400" />
              <mxPoint x="730" y="865" />
            </Array>
          </mxGeometry>
        </mxCell>
        <mxCell id="V0SltNnf2rR5sdcxYznG-4" value="是否有缓存？" style="rhombus;whiteSpace=wrap;html=1;fontSize=14;fillColor=#fff2cc;strokeColor=#d6b656;flipV=0;" vertex="1" parent="1">
          <mxGeometry x="324.99" y="370" width="130" height="60" as="geometry" />
        </mxCell>
        <mxCell id="V0SltNnf2rR5sdcxYznG-7" value="YES" style="text;html=1;align=center;verticalAlign=middle;resizable=0;points=[];autosize=1;fontSize=14;fontStyle=1;fontColor=#009900;" vertex="1" parent="1">
          <mxGeometry x="449.99" y="380" width="40" height="20" as="geometry" />
        </mxCell>
        <mxCell id="V0SltNnf2rR5sdcxYznG-8" value="NO" style="text;html=1;align=center;verticalAlign=middle;resizable=0;points=[];autosize=1;fontSize=14;fontStyle=1;fontColor=#FF0000;" vertex="1" parent="1">
          <mxGeometry x="276.24" y="470" width="40" height="20" as="geometry" />
        </mxCell>
        <mxCell id="V0SltNnf2rR5sdcxYznG-14" style="edgeStyle=orthogonalEdgeStyle;rounded=0;orthogonalLoop=1;jettySize=auto;html=1;exitX=0.5;exitY=1;exitDx=0;exitDy=0;entryX=0.5;entryY=0;entryDx=0;entryDy=0;fontSize=14;fontColor=#FF0000;" edge="1" parent="1" source="V0SltNnf2rR5sdcxYznG-9" target="V0SltNnf2rR5sdcxYznG-13">
          <mxGeometry relative="1" as="geometry" />
        </mxCell>
        <mxCell id="V0SltNnf2rR5sdcxYznG-26" style="edgeStyle=orthogonalEdgeStyle;rounded=0;orthogonalLoop=1;jettySize=auto;html=1;exitX=0;exitY=0.5;exitDx=0;exitDy=0;fontSize=14;fontColor=#FF0000;strokeColor=#FF0000;" edge="1" parent="1" source="V0SltNnf2rR5sdcxYznG-9">
          <mxGeometry relative="1" as="geometry">
            <mxPoint x="160" y="870" as="targetPoint" />
          </mxGeometry>
        </mxCell>
        <mxCell id="V0SltNnf2rR5sdcxYznG-9" value="断路器是否闭合？" style="rhombus;whiteSpace=wrap;html=1;fontSize=14;fillColor=#fff2cc;strokeColor=#d6b656;flipV=0;" vertex="1" parent="1">
          <mxGeometry x="302.5" y="461" width="175" height="60" as="geometry" />
        </mxCell>
        <mxCell id="V0SltNnf2rR5sdcxYznG-11" value="&lt;font color=&quot;#000000&quot;&gt;Fallback&lt;/font&gt;" style="rounded=0;whiteSpace=wrap;html=1;fontSize=14;fillColor=#ffe6cc;strokeColor=#d79b00;" vertex="1" parent="1">
          <mxGeometry x="100" y="840" width="120" height="50" as="geometry" />
        </mxCell>
        <mxCell id="V0SltNnf2rR5sdcxYznG-16" style="edgeStyle=orthogonalEdgeStyle;rounded=0;orthogonalLoop=1;jettySize=auto;html=1;exitX=0.5;exitY=1;exitDx=0;exitDy=0;entryX=0.5;entryY=0;entryDx=0;entryDy=0;fontSize=14;fontColor=#FF0000;" edge="1" parent="1" source="V0SltNnf2rR5sdcxYznG-13" target="V0SltNnf2rR5sdcxYznG-15">
          <mxGeometry relative="1" as="geometry" />
        </mxCell>
        <mxCell id="V0SltNnf2rR5sdcxYznG-25" style="edgeStyle=orthogonalEdgeStyle;rounded=0;orthogonalLoop=1;jettySize=auto;html=1;exitX=0;exitY=0.5;exitDx=0;exitDy=0;fontSize=14;fontColor=#FF0000;strokeColor=#FF0000;" edge="1" parent="1" source="V0SltNnf2rR5sdcxYznG-13">
          <mxGeometry relative="1" as="geometry">
            <mxPoint x="160" y="840" as="targetPoint" />
          </mxGeometry>
        </mxCell>
        <mxCell id="V0SltNnf2rR5sdcxYznG-13" value="线程池或信号量是否可用？" style="rhombus;whiteSpace=wrap;html=1;fontSize=14;fillColor=#fff2cc;strokeColor=#d6b656;flipV=0;" vertex="1" parent="1">
          <mxGeometry x="276.24" y="565" width="227.5" height="60" as="geometry" />
        </mxCell>
        <mxCell id="V0SltNnf2rR5sdcxYznG-18" style="edgeStyle=orthogonalEdgeStyle;rounded=0;orthogonalLoop=1;jettySize=auto;html=1;exitX=0.5;exitY=1;exitDx=0;exitDy=0;entryX=0.5;entryY=0;entryDx=0;entryDy=0;fontSize=14;fontColor=#FF0000;" edge="1" parent="1" source="V0SltNnf2rR5sdcxYznG-15" target="V0SltNnf2rR5sdcxYznG-17">
          <mxGeometry relative="1" as="geometry" />
        </mxCell>
        <mxCell id="V0SltNnf2rR5sdcxYznG-15" value="调用远程服务" style="rounded=0;whiteSpace=wrap;html=1;fontSize=14;fillColor=#dae8fc;strokeColor=#6c8ebf;flipV=0;" vertex="1" parent="1">
          <mxGeometry x="325" y="666" width="130" height="40" as="geometry" />
        </mxCell>
        <mxCell id="V0SltNnf2rR5sdcxYznG-20" style="edgeStyle=orthogonalEdgeStyle;rounded=0;orthogonalLoop=1;jettySize=auto;html=1;exitX=0.5;exitY=1;exitDx=0;exitDy=0;entryX=0.5;entryY=0;entryDx=0;entryDy=0;fontSize=14;fontColor=#FF0000;" edge="1" parent="1" source="V0SltNnf2rR5sdcxYznG-17" target="V0SltNnf2rR5sdcxYznG-19">
          <mxGeometry relative="1" as="geometry" />
        </mxCell>
        <mxCell id="V0SltNnf2rR5sdcxYznG-24" style="edgeStyle=orthogonalEdgeStyle;rounded=0;orthogonalLoop=1;jettySize=auto;html=1;exitX=0;exitY=0.5;exitDx=0;exitDy=0;entryX=0.5;entryY=0;entryDx=0;entryDy=0;fontSize=14;fontColor=#FF0000;strokeColor=#FF0000;" edge="1" parent="1" source="V0SltNnf2rR5sdcxYznG-17" target="V0SltNnf2rR5sdcxYznG-11">
          <mxGeometry relative="1" as="geometry" />
        </mxCell>
        <mxCell id="V0SltNnf2rR5sdcxYznG-33" style="edgeStyle=orthogonalEdgeStyle;rounded=0;orthogonalLoop=1;jettySize=auto;html=1;exitX=1;exitY=0.5;exitDx=0;exitDy=0;entryX=0.5;entryY=1;entryDx=0;entryDy=0;fontSize=14;fontColor=#FF0000;dashed=1;" edge="1" parent="1" source="V0SltNnf2rR5sdcxYznG-17" target="V0SltNnf2rR5sdcxYznG-32">
          <mxGeometry relative="1" as="geometry" />
        </mxCell>
        <mxCell id="V0SltNnf2rR5sdcxYznG-17" value="调用是否成功？" style="rhombus;whiteSpace=wrap;html=1;fontSize=14;fillColor=#fff2cc;strokeColor=#d6b656;flipV=0;" vertex="1" parent="1">
          <mxGeometry x="308.11" y="740" width="163.75" height="60" as="geometry" />
        </mxCell>
        <mxCell id="V0SltNnf2rR5sdcxYznG-19" value="将结果返回给调用者，并缓存结果。" style="rounded=0;whiteSpace=wrap;html=1;fontSize=14;fillColor=#d5e8d4;strokeColor=#82b366;flipV=0;" vertex="1" parent="1">
          <mxGeometry x="324.99" y="840" width="130" height="50" as="geometry" />
        </mxCell>
        <mxCell id="V0SltNnf2rR5sdcxYznG-27" value="NO" style="text;html=1;align=center;verticalAlign=middle;resizable=0;points=[];autosize=1;fontSize=14;fontStyle=1;fontColor=#FF0000;" vertex="1" parent="1">
          <mxGeometry x="250" y="575" width="40" height="20" as="geometry" />
        </mxCell>
        <mxCell id="V0SltNnf2rR5sdcxYznG-28" value="NO" style="text;html=1;align=center;verticalAlign=middle;resizable=0;points=[];autosize=1;fontSize=14;fontStyle=1;fontColor=#FF0000;" vertex="1" parent="1">
          <mxGeometry x="268.11" y="750" width="40" height="20" as="geometry" />
        </mxCell>
        <mxCell id="V0SltNnf2rR5sdcxYznG-29" value="YES" style="text;html=1;align=center;verticalAlign=middle;resizable=0;points=[];autosize=1;fontSize=14;fontStyle=1;fontColor=#009900;" vertex="1" parent="1">
          <mxGeometry x="390" y="521" width="40" height="20" as="geometry" />
        </mxCell>
        <mxCell id="V0SltNnf2rR5sdcxYznG-30" value="YES" style="text;html=1;align=center;verticalAlign=middle;resizable=0;points=[];autosize=1;fontSize=14;fontStyle=1;fontColor=#009900;" vertex="1" parent="1">
          <mxGeometry x="390" y="625" width="40" height="20" as="geometry" />
        </mxCell>
        <mxCell id="V0SltNnf2rR5sdcxYznG-31" value="YES" style="text;html=1;align=center;verticalAlign=middle;resizable=0;points=[];autosize=1;fontSize=14;fontStyle=1;fontColor=#009900;" vertex="1" parent="1">
          <mxGeometry x="390" y="800" width="40" height="20" as="geometry" />
        </mxCell>
        <mxCell id="V0SltNnf2rR5sdcxYznG-34" style="edgeStyle=orthogonalEdgeStyle;rounded=0;orthogonalLoop=1;jettySize=auto;html=1;exitX=0.5;exitY=0;exitDx=0;exitDy=0;entryX=1;entryY=0.5;entryDx=0;entryDy=0;fontSize=14;fontColor=#FF0000;dashed=1;" edge="1" parent="1" source="V0SltNnf2rR5sdcxYznG-32" target="V0SltNnf2rR5sdcxYznG-9">
          <mxGeometry relative="1" as="geometry" />
        </mxCell>
        <mxCell id="V0SltNnf2rR5sdcxYznG-32" value="&lt;font color=&quot;#000000&quot;&gt;收集统计信息，决定是否断开断路器。&lt;/font&gt;" style="rounded=0;whiteSpace=wrap;html=1;fontSize=14;fillColor=#e1d5e7;strokeColor=#9673a6;" vertex="1" parent="1">
          <mxGeometry x="560" y="595" width="130" height="60" as="geometry" />
        </mxCell>
      </root>
    </mxGraphModel>
  </diagram>
</mxfile>
